<mxfile host="app.diagrams.net" agent="Mozilla/5.0 (Windows NT 10.0; Win64; x64; rv:134.0) Gecko/20100101 Firefox/134.0" version="26.0.16" pages="2">
  <diagram name="Page-1" id="JLlcvnLWB-mLBFpG1DJz">
    <mxGraphModel dx="2014" dy="811" grid="1" gridSize="10" guides="1" tooltips="1" connect="1" arrows="1" fold="1" page="1" pageScale="1" pageWidth="1169" pageHeight="827" math="0" shadow="0">
      <root>
        <mxCell id="0" />
        <mxCell id="1" parent="0" />
        <mxCell id="5_K6K1fChQ0ti-rGvMC--2" value="Actionneurs" style="swimlane;fontStyle=0;childLayout=stackLayout;horizontal=1;startSize=26;horizontalStack=0;resizeParent=1;resizeParentMax=0;resizeLast=0;collapsible=1;marginBottom=0;align=center;fontSize=14;movable=1;resizable=1;rotatable=1;deletable=1;editable=1;locked=0;connectable=1;" vertex="1" parent="1">
          <mxGeometry x="30" y="40" width="160" height="116" as="geometry" />
        </mxCell>
        <mxCell id="5_K6K1fChQ0ti-rGvMC--3" value="idActionneurs" style="text;strokeColor=none;fillColor=none;spacingLeft=4;spacingRight=4;overflow=hidden;rotatable=0;points=[[0,0.5],[1,0.5]];portConstraint=eastwest;fontSize=12;whiteSpace=wrap;html=1;" vertex="1" parent="5_K6K1fChQ0ti-rGvMC--2">
          <mxGeometry y="26" width="160" height="30" as="geometry" />
        </mxCell>
        <mxCell id="5_K6K1fChQ0ti-rGvMC--4" value="typeActionneurs" style="text;strokeColor=none;fillColor=none;spacingLeft=4;spacingRight=4;overflow=hidden;rotatable=0;points=[[0,0.5],[1,0.5]];portConstraint=eastwest;fontSize=12;whiteSpace=wrap;html=1;" vertex="1" parent="5_K6K1fChQ0ti-rGvMC--2">
          <mxGeometry y="56" width="160" height="30" as="geometry" />
        </mxCell>
        <mxCell id="5_K6K1fChQ0ti-rGvMC--5" value="Localisation" style="text;strokeColor=none;fillColor=none;spacingLeft=4;spacingRight=4;overflow=hidden;rotatable=0;points=[[0,0.5],[1,0.5]];portConstraint=eastwest;fontSize=12;whiteSpace=wrap;html=1;" vertex="1" parent="5_K6K1fChQ0ti-rGvMC--2">
          <mxGeometry y="86" width="160" height="30" as="geometry" />
        </mxCell>
        <mxCell id="5_K6K1fChQ0ti-rGvMC--6" value="Alertes" style="swimlane;fontStyle=0;childLayout=stackLayout;horizontal=1;startSize=26;horizontalStack=0;resizeParent=1;resizeParentMax=0;resizeLast=0;collapsible=1;marginBottom=0;align=center;fontSize=14;" vertex="1" parent="1">
          <mxGeometry x="240" y="40" width="160" height="116" as="geometry" />
        </mxCell>
        <mxCell id="5_K6K1fChQ0ti-rGvMC--7" value="idAlerte" style="text;strokeColor=none;fillColor=none;spacingLeft=4;spacingRight=4;overflow=hidden;rotatable=0;points=[[0,0.5],[1,0.5]];portConstraint=eastwest;fontSize=12;whiteSpace=wrap;html=1;" vertex="1" parent="5_K6K1fChQ0ti-rGvMC--6">
          <mxGeometry y="26" width="160" height="30" as="geometry" />
        </mxCell>
        <mxCell id="5_K6K1fChQ0ti-rGvMC--8" value="Item 2" style="text;strokeColor=none;fillColor=none;spacingLeft=4;spacingRight=4;overflow=hidden;rotatable=0;points=[[0,0.5],[1,0.5]];portConstraint=eastwest;fontSize=12;whiteSpace=wrap;html=1;" vertex="1" parent="5_K6K1fChQ0ti-rGvMC--6">
          <mxGeometry y="56" width="160" height="30" as="geometry" />
        </mxCell>
        <mxCell id="5_K6K1fChQ0ti-rGvMC--9" value="Item 3" style="text;strokeColor=none;fillColor=none;spacingLeft=4;spacingRight=4;overflow=hidden;rotatable=0;points=[[0,0.5],[1,0.5]];portConstraint=eastwest;fontSize=12;whiteSpace=wrap;html=1;" vertex="1" parent="5_K6K1fChQ0ti-rGvMC--6">
          <mxGeometry y="86" width="160" height="30" as="geometry" />
        </mxCell>
        <mxCell id="5_K6K1fChQ0ti-rGvMC--10" value="Bacs" style="swimlane;fontStyle=0;childLayout=stackLayout;horizontal=1;startSize=26;horizontalStack=0;resizeParent=1;resizeParentMax=0;resizeLast=0;collapsible=1;marginBottom=0;align=center;fontSize=14;" vertex="1" parent="1">
          <mxGeometry x="450" y="40" width="160" height="116" as="geometry" />
        </mxCell>
        <mxCell id="5_K6K1fChQ0ti-rGvMC--11" value="idBacs" style="text;strokeColor=none;fillColor=none;spacingLeft=4;spacingRight=4;overflow=hidden;rotatable=0;points=[[0,0.5],[1,0.5]];portConstraint=eastwest;fontSize=12;whiteSpace=wrap;html=1;" vertex="1" parent="5_K6K1fChQ0ti-rGvMC--10">
          <mxGeometry y="26" width="160" height="30" as="geometry" />
        </mxCell>
        <mxCell id="5_K6K1fChQ0ti-rGvMC--12" value="Item 2" style="text;strokeColor=none;fillColor=none;spacingLeft=4;spacingRight=4;overflow=hidden;rotatable=0;points=[[0,0.5],[1,0.5]];portConstraint=eastwest;fontSize=12;whiteSpace=wrap;html=1;" vertex="1" parent="5_K6K1fChQ0ti-rGvMC--10">
          <mxGeometry y="56" width="160" height="30" as="geometry" />
        </mxCell>
        <mxCell id="5_K6K1fChQ0ti-rGvMC--13" value="Item 3" style="text;strokeColor=none;fillColor=none;spacingLeft=4;spacingRight=4;overflow=hidden;rotatable=0;points=[[0,0.5],[1,0.5]];portConstraint=eastwest;fontSize=12;whiteSpace=wrap;html=1;" vertex="1" parent="5_K6K1fChQ0ti-rGvMC--10">
          <mxGeometry y="86" width="160" height="30" as="geometry" />
        </mxCell>
        <mxCell id="5_K6K1fChQ0ti-rGvMC--14" value="Capteurs" style="swimlane;fontStyle=0;childLayout=stackLayout;horizontal=1;startSize=26;horizontalStack=0;resizeParent=1;resizeParentMax=0;resizeLast=0;collapsible=1;marginBottom=0;align=center;fontSize=14;" vertex="1" parent="1">
          <mxGeometry x="680" y="40" width="160" height="116" as="geometry" />
        </mxCell>
        <mxCell id="5_K6K1fChQ0ti-rGvMC--15" value="idCapteur" style="text;strokeColor=none;fillColor=none;spacingLeft=4;spacingRight=4;overflow=hidden;rotatable=0;points=[[0,0.5],[1,0.5]];portConstraint=eastwest;fontSize=12;whiteSpace=wrap;html=1;" vertex="1" parent="5_K6K1fChQ0ti-rGvMC--14">
          <mxGeometry y="26" width="160" height="30" as="geometry" />
        </mxCell>
        <mxCell id="5_K6K1fChQ0ti-rGvMC--16" value="Item 2" style="text;strokeColor=none;fillColor=none;spacingLeft=4;spacingRight=4;overflow=hidden;rotatable=0;points=[[0,0.5],[1,0.5]];portConstraint=eastwest;fontSize=12;whiteSpace=wrap;html=1;" vertex="1" parent="5_K6K1fChQ0ti-rGvMC--14">
          <mxGeometry y="56" width="160" height="30" as="geometry" />
        </mxCell>
        <mxCell id="5_K6K1fChQ0ti-rGvMC--17" value="Item 3" style="text;strokeColor=none;fillColor=none;spacingLeft=4;spacingRight=4;overflow=hidden;rotatable=0;points=[[0,0.5],[1,0.5]];portConstraint=eastwest;fontSize=12;whiteSpace=wrap;html=1;" vertex="1" parent="5_K6K1fChQ0ti-rGvMC--14">
          <mxGeometry y="86" width="160" height="30" as="geometry" />
        </mxCell>
        <mxCell id="5_K6K1fChQ0ti-rGvMC--18" value="Irrigations" style="swimlane;fontStyle=0;childLayout=stackLayout;horizontal=1;startSize=26;horizontalStack=0;resizeParent=1;resizeParentMax=0;resizeLast=0;collapsible=1;marginBottom=0;align=center;fontSize=14;" vertex="1" parent="1">
          <mxGeometry x="880" y="40" width="160" height="116" as="geometry" />
        </mxCell>
        <mxCell id="5_K6K1fChQ0ti-rGvMC--19" value="idIrrigation" style="text;strokeColor=none;fillColor=none;spacingLeft=4;spacingRight=4;overflow=hidden;rotatable=0;points=[[0,0.5],[1,0.5]];portConstraint=eastwest;fontSize=12;whiteSpace=wrap;html=1;" vertex="1" parent="5_K6K1fChQ0ti-rGvMC--18">
          <mxGeometry y="26" width="160" height="30" as="geometry" />
        </mxCell>
        <mxCell id="5_K6K1fChQ0ti-rGvMC--20" value="Item 2" style="text;strokeColor=none;fillColor=none;spacingLeft=4;spacingRight=4;overflow=hidden;rotatable=0;points=[[0,0.5],[1,0.5]];portConstraint=eastwest;fontSize=12;whiteSpace=wrap;html=1;" vertex="1" parent="5_K6K1fChQ0ti-rGvMC--18">
          <mxGeometry y="56" width="160" height="30" as="geometry" />
        </mxCell>
        <mxCell id="5_K6K1fChQ0ti-rGvMC--21" value="Item 3" style="text;strokeColor=none;fillColor=none;spacingLeft=4;spacingRight=4;overflow=hidden;rotatable=0;points=[[0,0.5],[1,0.5]];portConstraint=eastwest;fontSize=12;whiteSpace=wrap;html=1;" vertex="1" parent="5_K6K1fChQ0ti-rGvMC--18">
          <mxGeometry y="86" width="160" height="30" as="geometry" />
        </mxCell>
        <mxCell id="5_K6K1fChQ0ti-rGvMC--22" value="Météo" style="swimlane;fontStyle=0;childLayout=stackLayout;horizontal=1;startSize=26;horizontalStack=0;resizeParent=1;resizeParentMax=0;resizeLast=0;collapsible=1;marginBottom=0;align=center;fontSize=14;" vertex="1" parent="1">
          <mxGeometry x="25" y="430" width="160" height="116" as="geometry" />
        </mxCell>
        <mxCell id="5_K6K1fChQ0ti-rGvMC--23" value="idMeteo" style="text;strokeColor=none;fillColor=none;spacingLeft=4;spacingRight=4;overflow=hidden;rotatable=0;points=[[0,0.5],[1,0.5]];portConstraint=eastwest;fontSize=12;whiteSpace=wrap;html=1;" vertex="1" parent="5_K6K1fChQ0ti-rGvMC--22">
          <mxGeometry y="26" width="160" height="30" as="geometry" />
        </mxCell>
        <mxCell id="5_K6K1fChQ0ti-rGvMC--24" value="Item 2" style="text;strokeColor=none;fillColor=none;spacingLeft=4;spacingRight=4;overflow=hidden;rotatable=0;points=[[0,0.5],[1,0.5]];portConstraint=eastwest;fontSize=12;whiteSpace=wrap;html=1;" vertex="1" parent="5_K6K1fChQ0ti-rGvMC--22">
          <mxGeometry y="56" width="160" height="30" as="geometry" />
        </mxCell>
        <mxCell id="5_K6K1fChQ0ti-rGvMC--25" value="Item 3" style="text;strokeColor=none;fillColor=none;spacingLeft=4;spacingRight=4;overflow=hidden;rotatable=0;points=[[0,0.5],[1,0.5]];portConstraint=eastwest;fontSize=12;whiteSpace=wrap;html=1;" vertex="1" parent="5_K6K1fChQ0ti-rGvMC--22">
          <mxGeometry y="86" width="160" height="30" as="geometry" />
        </mxCell>
        <mxCell id="5_K6K1fChQ0ti-rGvMC--26" value="Ombrières" style="swimlane;fontStyle=0;childLayout=stackLayout;horizontal=1;startSize=26;horizontalStack=0;resizeParent=1;resizeParentMax=0;resizeLast=0;collapsible=1;marginBottom=0;align=center;fontSize=14;" vertex="1" parent="1">
          <mxGeometry x="237" y="430" width="160" height="116" as="geometry" />
        </mxCell>
        <mxCell id="5_K6K1fChQ0ti-rGvMC--27" value="idOmbriere" style="text;strokeColor=none;fillColor=none;spacingLeft=4;spacingRight=4;overflow=hidden;rotatable=0;points=[[0,0.5],[1,0.5]];portConstraint=eastwest;fontSize=12;whiteSpace=wrap;html=1;" vertex="1" parent="5_K6K1fChQ0ti-rGvMC--26">
          <mxGeometry y="26" width="160" height="30" as="geometry" />
        </mxCell>
        <mxCell id="5_K6K1fChQ0ti-rGvMC--28" value="Item 2" style="text;strokeColor=none;fillColor=none;spacingLeft=4;spacingRight=4;overflow=hidden;rotatable=0;points=[[0,0.5],[1,0.5]];portConstraint=eastwest;fontSize=12;whiteSpace=wrap;html=1;" vertex="1" parent="5_K6K1fChQ0ti-rGvMC--26">
          <mxGeometry y="56" width="160" height="30" as="geometry" />
        </mxCell>
        <mxCell id="5_K6K1fChQ0ti-rGvMC--29" value="Item 3" style="text;strokeColor=none;fillColor=none;spacingLeft=4;spacingRight=4;overflow=hidden;rotatable=0;points=[[0,0.5],[1,0.5]];portConstraint=eastwest;fontSize=12;whiteSpace=wrap;html=1;" vertex="1" parent="5_K6K1fChQ0ti-rGvMC--26">
          <mxGeometry y="86" width="160" height="30" as="geometry" />
        </mxCell>
        <mxCell id="5_K6K1fChQ0ti-rGvMC--30" value="Plantes" style="swimlane;fontStyle=0;childLayout=stackLayout;horizontal=1;startSize=26;horizontalStack=0;resizeParent=1;resizeParentMax=0;resizeLast=0;collapsible=1;marginBottom=0;align=center;fontSize=14;" vertex="1" parent="1">
          <mxGeometry x="450" y="430" width="160" height="116" as="geometry" />
        </mxCell>
        <mxCell id="5_K6K1fChQ0ti-rGvMC--31" value="idPlantes" style="text;strokeColor=none;fillColor=none;spacingLeft=4;spacingRight=4;overflow=hidden;rotatable=0;points=[[0,0.5],[1,0.5]];portConstraint=eastwest;fontSize=12;whiteSpace=wrap;html=1;" vertex="1" parent="5_K6K1fChQ0ti-rGvMC--30">
          <mxGeometry y="26" width="160" height="30" as="geometry" />
        </mxCell>
        <mxCell id="5_K6K1fChQ0ti-rGvMC--32" value="Item 2" style="text;strokeColor=none;fillColor=none;spacingLeft=4;spacingRight=4;overflow=hidden;rotatable=0;points=[[0,0.5],[1,0.5]];portConstraint=eastwest;fontSize=12;whiteSpace=wrap;html=1;" vertex="1" parent="5_K6K1fChQ0ti-rGvMC--30">
          <mxGeometry y="56" width="160" height="30" as="geometry" />
        </mxCell>
        <mxCell id="5_K6K1fChQ0ti-rGvMC--33" value="Item 3" style="text;strokeColor=none;fillColor=none;spacingLeft=4;spacingRight=4;overflow=hidden;rotatable=0;points=[[0,0.5],[1,0.5]];portConstraint=eastwest;fontSize=12;whiteSpace=wrap;html=1;" vertex="1" parent="5_K6K1fChQ0ti-rGvMC--30">
          <mxGeometry y="86" width="160" height="30" as="geometry" />
        </mxCell>
        <mxCell id="5_K6K1fChQ0ti-rGvMC--34" value="Production électrique" style="swimlane;fontStyle=0;childLayout=stackLayout;horizontal=1;startSize=26;horizontalStack=0;resizeParent=1;resizeParentMax=0;resizeLast=0;collapsible=1;marginBottom=0;align=center;fontSize=14;" vertex="1" parent="1">
          <mxGeometry x="663" y="430" width="160" height="116" as="geometry" />
        </mxCell>
        <mxCell id="5_K6K1fChQ0ti-rGvMC--35" value="idProduction" style="text;strokeColor=none;fillColor=none;spacingLeft=4;spacingRight=4;overflow=hidden;rotatable=0;points=[[0,0.5],[1,0.5]];portConstraint=eastwest;fontSize=12;whiteSpace=wrap;html=1;" vertex="1" parent="5_K6K1fChQ0ti-rGvMC--34">
          <mxGeometry y="26" width="160" height="30" as="geometry" />
        </mxCell>
        <mxCell id="5_K6K1fChQ0ti-rGvMC--36" value="Item 2" style="text;strokeColor=none;fillColor=none;spacingLeft=4;spacingRight=4;overflow=hidden;rotatable=0;points=[[0,0.5],[1,0.5]];portConstraint=eastwest;fontSize=12;whiteSpace=wrap;html=1;" vertex="1" parent="5_K6K1fChQ0ti-rGvMC--34">
          <mxGeometry y="56" width="160" height="30" as="geometry" />
        </mxCell>
        <mxCell id="5_K6K1fChQ0ti-rGvMC--37" value="Item 3" style="text;strokeColor=none;fillColor=none;spacingLeft=4;spacingRight=4;overflow=hidden;rotatable=0;points=[[0,0.5],[1,0.5]];portConstraint=eastwest;fontSize=12;whiteSpace=wrap;html=1;" vertex="1" parent="5_K6K1fChQ0ti-rGvMC--34">
          <mxGeometry y="86" width="160" height="30" as="geometry" />
        </mxCell>
        <mxCell id="5_K6K1fChQ0ti-rGvMC--38" value="Recette" style="swimlane;fontStyle=0;childLayout=stackLayout;horizontal=1;startSize=26;horizontalStack=0;resizeParent=1;resizeParentMax=0;resizeLast=0;collapsible=1;marginBottom=0;align=center;fontSize=14;" vertex="1" parent="1">
          <mxGeometry x="875" y="430" width="160" height="116" as="geometry" />
        </mxCell>
        <mxCell id="5_K6K1fChQ0ti-rGvMC--39" value="idRecette" style="text;strokeColor=none;fillColor=none;spacingLeft=4;spacingRight=4;overflow=hidden;rotatable=0;points=[[0,0.5],[1,0.5]];portConstraint=eastwest;fontSize=12;whiteSpace=wrap;html=1;" vertex="1" parent="5_K6K1fChQ0ti-rGvMC--38">
          <mxGeometry y="26" width="160" height="30" as="geometry" />
        </mxCell>
        <mxCell id="5_K6K1fChQ0ti-rGvMC--40" value="Item 2" style="text;strokeColor=none;fillColor=none;spacingLeft=4;spacingRight=4;overflow=hidden;rotatable=0;points=[[0,0.5],[1,0.5]];portConstraint=eastwest;fontSize=12;whiteSpace=wrap;html=1;" vertex="1" parent="5_K6K1fChQ0ti-rGvMC--38">
          <mxGeometry y="56" width="160" height="30" as="geometry" />
        </mxCell>
        <mxCell id="5_K6K1fChQ0ti-rGvMC--41" value="Item 3" style="text;strokeColor=none;fillColor=none;spacingLeft=4;spacingRight=4;overflow=hidden;rotatable=0;points=[[0,0.5],[1,0.5]];portConstraint=eastwest;fontSize=12;whiteSpace=wrap;html=1;" vertex="1" parent="5_K6K1fChQ0ti-rGvMC--38">
          <mxGeometry y="86" width="160" height="30" as="geometry" />
        </mxCell>
      </root>
    </mxGraphModel>
  </diagram>
  <diagram name="MCD" id="uWJ0e3N0dm7fcI5BOGlj">
    <mxGraphModel dx="1278" dy="1275" grid="1" gridSize="10" guides="1" tooltips="1" connect="1" arrows="1" fold="1" page="1" pageScale="1" pageWidth="1169" pageHeight="827" math="0" shadow="0">
      <root>
        <mxCell id="T9H4gMGK_s0aDdUB7x26-0" />
        <mxCell id="T9H4gMGK_s0aDdUB7x26-1" parent="T9H4gMGK_s0aDdUB7x26-0" />
        <mxCell id="T9H4gMGK_s0aDdUB7x26-2" value="Actionneurs" style="swimlane;fontStyle=0;childLayout=stackLayout;horizontal=1;startSize=26;horizontalStack=0;resizeParent=1;resizeParentMax=0;resizeLast=0;collapsible=1;marginBottom=0;align=center;fontSize=14;movable=1;resizable=1;rotatable=1;deletable=1;editable=1;locked=0;connectable=1;" parent="T9H4gMGK_s0aDdUB7x26-1" vertex="1">
          <mxGeometry x="30" y="40" width="160" height="116" as="geometry" />
        </mxCell>
        <mxCell id="T9H4gMGK_s0aDdUB7x26-3" value="idActionneurs" style="text;strokeColor=none;fillColor=none;spacingLeft=4;spacingRight=4;overflow=hidden;rotatable=0;points=[[0,0.5],[1,0.5]];portConstraint=eastwest;fontSize=12;whiteSpace=wrap;html=1;" parent="T9H4gMGK_s0aDdUB7x26-2" vertex="1">
          <mxGeometry y="26" width="160" height="30" as="geometry" />
        </mxCell>
        <mxCell id="T9H4gMGK_s0aDdUB7x26-4" value="typeActionneurs" style="text;strokeColor=none;fillColor=none;spacingLeft=4;spacingRight=4;overflow=hidden;rotatable=0;points=[[0,0.5],[1,0.5]];portConstraint=eastwest;fontSize=12;whiteSpace=wrap;html=1;" parent="T9H4gMGK_s0aDdUB7x26-2" vertex="1">
          <mxGeometry y="56" width="160" height="30" as="geometry" />
        </mxCell>
        <mxCell id="T9H4gMGK_s0aDdUB7x26-5" value="Localisation" style="text;strokeColor=none;fillColor=none;spacingLeft=4;spacingRight=4;overflow=hidden;rotatable=0;points=[[0,0.5],[1,0.5]];portConstraint=eastwest;fontSize=12;whiteSpace=wrap;html=1;" parent="T9H4gMGK_s0aDdUB7x26-2" vertex="1">
          <mxGeometry y="86" width="160" height="30" as="geometry" />
        </mxCell>
        <mxCell id="T9H4gMGK_s0aDdUB7x26-6" value="Alertes" style="swimlane;fontStyle=0;childLayout=stackLayout;horizontal=1;startSize=26;horizontalStack=0;resizeParent=1;resizeParentMax=0;resizeLast=0;collapsible=1;marginBottom=0;align=center;fontSize=14;" parent="T9H4gMGK_s0aDdUB7x26-1" vertex="1">
          <mxGeometry x="240" y="40" width="160" height="116" as="geometry" />
        </mxCell>
        <mxCell id="T9H4gMGK_s0aDdUB7x26-7" value="idAlerte" style="text;strokeColor=none;fillColor=none;spacingLeft=4;spacingRight=4;overflow=hidden;rotatable=0;points=[[0,0.5],[1,0.5]];portConstraint=eastwest;fontSize=12;whiteSpace=wrap;html=1;" parent="T9H4gMGK_s0aDdUB7x26-6" vertex="1">
          <mxGeometry y="26" width="160" height="30" as="geometry" />
        </mxCell>
        <mxCell id="T9H4gMGK_s0aDdUB7x26-8" value="Item 2" style="text;strokeColor=none;fillColor=none;spacingLeft=4;spacingRight=4;overflow=hidden;rotatable=0;points=[[0,0.5],[1,0.5]];portConstraint=eastwest;fontSize=12;whiteSpace=wrap;html=1;" parent="T9H4gMGK_s0aDdUB7x26-6" vertex="1">
          <mxGeometry y="56" width="160" height="30" as="geometry" />
        </mxCell>
        <mxCell id="T9H4gMGK_s0aDdUB7x26-9" value="Item 3" style="text;strokeColor=none;fillColor=none;spacingLeft=4;spacingRight=4;overflow=hidden;rotatable=0;points=[[0,0.5],[1,0.5]];portConstraint=eastwest;fontSize=12;whiteSpace=wrap;html=1;" parent="T9H4gMGK_s0aDdUB7x26-6" vertex="1">
          <mxGeometry y="86" width="160" height="30" as="geometry" />
        </mxCell>
        <mxCell id="T9H4gMGK_s0aDdUB7x26-10" value="Bacs" style="swimlane;fontStyle=0;childLayout=stackLayout;horizontal=1;startSize=26;horizontalStack=0;resizeParent=1;resizeParentMax=0;resizeLast=0;collapsible=1;marginBottom=0;align=center;fontSize=14;" parent="T9H4gMGK_s0aDdUB7x26-1" vertex="1">
          <mxGeometry x="450" y="40" width="160" height="116" as="geometry" />
        </mxCell>
        <mxCell id="T9H4gMGK_s0aDdUB7x26-11" value="idBacs" style="text;strokeColor=none;fillColor=none;spacingLeft=4;spacingRight=4;overflow=hidden;rotatable=0;points=[[0,0.5],[1,0.5]];portConstraint=eastwest;fontSize=12;whiteSpace=wrap;html=1;" parent="T9H4gMGK_s0aDdUB7x26-10" vertex="1">
          <mxGeometry y="26" width="160" height="30" as="geometry" />
        </mxCell>
        <mxCell id="T9H4gMGK_s0aDdUB7x26-12" value="Item 2" style="text;strokeColor=none;fillColor=none;spacingLeft=4;spacingRight=4;overflow=hidden;rotatable=0;points=[[0,0.5],[1,0.5]];portConstraint=eastwest;fontSize=12;whiteSpace=wrap;html=1;" parent="T9H4gMGK_s0aDdUB7x26-10" vertex="1">
          <mxGeometry y="56" width="160" height="30" as="geometry" />
        </mxCell>
        <mxCell id="T9H4gMGK_s0aDdUB7x26-13" value="Item 3" style="text;strokeColor=none;fillColor=none;spacingLeft=4;spacingRight=4;overflow=hidden;rotatable=0;points=[[0,0.5],[1,0.5]];portConstraint=eastwest;fontSize=12;whiteSpace=wrap;html=1;" parent="T9H4gMGK_s0aDdUB7x26-10" vertex="1">
          <mxGeometry y="86" width="160" height="30" as="geometry" />
        </mxCell>
        <mxCell id="T9H4gMGK_s0aDdUB7x26-14" value="Capteurs" style="swimlane;fontStyle=0;childLayout=stackLayout;horizontal=1;startSize=26;horizontalStack=0;resizeParent=1;resizeParentMax=0;resizeLast=0;collapsible=1;marginBottom=0;align=center;fontSize=14;" parent="T9H4gMGK_s0aDdUB7x26-1" vertex="1">
          <mxGeometry x="680" y="40" width="160" height="116" as="geometry" />
        </mxCell>
        <mxCell id="T9H4gMGK_s0aDdUB7x26-15" value="idCapteur" style="text;strokeColor=none;fillColor=none;spacingLeft=4;spacingRight=4;overflow=hidden;rotatable=0;points=[[0,0.5],[1,0.5]];portConstraint=eastwest;fontSize=12;whiteSpace=wrap;html=1;" parent="T9H4gMGK_s0aDdUB7x26-14" vertex="1">
          <mxGeometry y="26" width="160" height="30" as="geometry" />
        </mxCell>
        <mxCell id="T9H4gMGK_s0aDdUB7x26-16" value="Item 2" style="text;strokeColor=none;fillColor=none;spacingLeft=4;spacingRight=4;overflow=hidden;rotatable=0;points=[[0,0.5],[1,0.5]];portConstraint=eastwest;fontSize=12;whiteSpace=wrap;html=1;" parent="T9H4gMGK_s0aDdUB7x26-14" vertex="1">
          <mxGeometry y="56" width="160" height="30" as="geometry" />
        </mxCell>
        <mxCell id="T9H4gMGK_s0aDdUB7x26-17" value="Item 3" style="text;strokeColor=none;fillColor=none;spacingLeft=4;spacingRight=4;overflow=hidden;rotatable=0;points=[[0,0.5],[1,0.5]];portConstraint=eastwest;fontSize=12;whiteSpace=wrap;html=1;" parent="T9H4gMGK_s0aDdUB7x26-14" vertex="1">
          <mxGeometry y="86" width="160" height="30" as="geometry" />
        </mxCell>
        <mxCell id="T9H4gMGK_s0aDdUB7x26-18" value="Irrigations" style="swimlane;fontStyle=0;childLayout=stackLayout;horizontal=1;startSize=26;horizontalStack=0;resizeParent=1;resizeParentMax=0;resizeLast=0;collapsible=1;marginBottom=0;align=center;fontSize=14;" parent="T9H4gMGK_s0aDdUB7x26-1" vertex="1">
          <mxGeometry x="880" y="40" width="160" height="116" as="geometry" />
        </mxCell>
        <mxCell id="T9H4gMGK_s0aDdUB7x26-19" value="idIrrigation" style="text;strokeColor=none;fillColor=none;spacingLeft=4;spacingRight=4;overflow=hidden;rotatable=0;points=[[0,0.5],[1,0.5]];portConstraint=eastwest;fontSize=12;whiteSpace=wrap;html=1;" parent="T9H4gMGK_s0aDdUB7x26-18" vertex="1">
          <mxGeometry y="26" width="160" height="30" as="geometry" />
        </mxCell>
        <mxCell id="T9H4gMGK_s0aDdUB7x26-20" value="Item 2" style="text;strokeColor=none;fillColor=none;spacingLeft=4;spacingRight=4;overflow=hidden;rotatable=0;points=[[0,0.5],[1,0.5]];portConstraint=eastwest;fontSize=12;whiteSpace=wrap;html=1;" parent="T9H4gMGK_s0aDdUB7x26-18" vertex="1">
          <mxGeometry y="56" width="160" height="30" as="geometry" />
        </mxCell>
        <mxCell id="T9H4gMGK_s0aDdUB7x26-21" value="Item 3" style="text;strokeColor=none;fillColor=none;spacingLeft=4;spacingRight=4;overflow=hidden;rotatable=0;points=[[0,0.5],[1,0.5]];portConstraint=eastwest;fontSize=12;whiteSpace=wrap;html=1;" parent="T9H4gMGK_s0aDdUB7x26-18" vertex="1">
          <mxGeometry y="86" width="160" height="30" as="geometry" />
        </mxCell>
        <mxCell id="T9H4gMGK_s0aDdUB7x26-22" value="Météo" style="swimlane;fontStyle=0;childLayout=stackLayout;horizontal=1;startSize=26;horizontalStack=0;resizeParent=1;resizeParentMax=0;resizeLast=0;collapsible=1;marginBottom=0;align=center;fontSize=14;" parent="T9H4gMGK_s0aDdUB7x26-1" vertex="1">
          <mxGeometry x="25" y="170" width="160" height="116" as="geometry" />
        </mxCell>
        <mxCell id="T9H4gMGK_s0aDdUB7x26-23" value="idMeteo" style="text;strokeColor=none;fillColor=none;spacingLeft=4;spacingRight=4;overflow=hidden;rotatable=0;points=[[0,0.5],[1,0.5]];portConstraint=eastwest;fontSize=12;whiteSpace=wrap;html=1;" parent="T9H4gMGK_s0aDdUB7x26-22" vertex="1">
          <mxGeometry y="26" width="160" height="30" as="geometry" />
        </mxCell>
        <mxCell id="T9H4gMGK_s0aDdUB7x26-24" value="Item 2" style="text;strokeColor=none;fillColor=none;spacingLeft=4;spacingRight=4;overflow=hidden;rotatable=0;points=[[0,0.5],[1,0.5]];portConstraint=eastwest;fontSize=12;whiteSpace=wrap;html=1;" parent="T9H4gMGK_s0aDdUB7x26-22" vertex="1">
          <mxGeometry y="56" width="160" height="30" as="geometry" />
        </mxCell>
        <mxCell id="T9H4gMGK_s0aDdUB7x26-25" value="Item 3" style="text;strokeColor=none;fillColor=none;spacingLeft=4;spacingRight=4;overflow=hidden;rotatable=0;points=[[0,0.5],[1,0.5]];portConstraint=eastwest;fontSize=12;whiteSpace=wrap;html=1;" parent="T9H4gMGK_s0aDdUB7x26-22" vertex="1">
          <mxGeometry y="86" width="160" height="30" as="geometry" />
        </mxCell>
        <mxCell id="T9H4gMGK_s0aDdUB7x26-26" value="Ombrières" style="swimlane;fontStyle=0;childLayout=stackLayout;horizontal=1;startSize=26;horizontalStack=0;resizeParent=1;resizeParentMax=0;resizeLast=0;collapsible=1;marginBottom=0;align=center;fontSize=14;" parent="T9H4gMGK_s0aDdUB7x26-1" vertex="1">
          <mxGeometry x="237" y="170" width="160" height="116" as="geometry" />
        </mxCell>
        <mxCell id="T9H4gMGK_s0aDdUB7x26-27" value="idOmbriere" style="text;strokeColor=none;fillColor=none;spacingLeft=4;spacingRight=4;overflow=hidden;rotatable=0;points=[[0,0.5],[1,0.5]];portConstraint=eastwest;fontSize=12;whiteSpace=wrap;html=1;" parent="T9H4gMGK_s0aDdUB7x26-26" vertex="1">
          <mxGeometry y="26" width="160" height="30" as="geometry" />
        </mxCell>
        <mxCell id="T9H4gMGK_s0aDdUB7x26-28" value="Item 2" style="text;strokeColor=none;fillColor=none;spacingLeft=4;spacingRight=4;overflow=hidden;rotatable=0;points=[[0,0.5],[1,0.5]];portConstraint=eastwest;fontSize=12;whiteSpace=wrap;html=1;" parent="T9H4gMGK_s0aDdUB7x26-26" vertex="1">
          <mxGeometry y="56" width="160" height="30" as="geometry" />
        </mxCell>
        <mxCell id="T9H4gMGK_s0aDdUB7x26-29" value="Item 3" style="text;strokeColor=none;fillColor=none;spacingLeft=4;spacingRight=4;overflow=hidden;rotatable=0;points=[[0,0.5],[1,0.5]];portConstraint=eastwest;fontSize=12;whiteSpace=wrap;html=1;" parent="T9H4gMGK_s0aDdUB7x26-26" vertex="1">
          <mxGeometry y="86" width="160" height="30" as="geometry" />
        </mxCell>
        <mxCell id="T9H4gMGK_s0aDdUB7x26-30" value="Plantes" style="swimlane;fontStyle=0;childLayout=stackLayout;horizontal=1;startSize=26;horizontalStack=0;resizeParent=1;resizeParentMax=0;resizeLast=0;collapsible=1;marginBottom=0;align=center;fontSize=14;" parent="T9H4gMGK_s0aDdUB7x26-1" vertex="1">
          <mxGeometry x="450" y="170" width="160" height="116" as="geometry" />
        </mxCell>
        <mxCell id="T9H4gMGK_s0aDdUB7x26-31" value="idPlantes" style="text;strokeColor=none;fillColor=none;spacingLeft=4;spacingRight=4;overflow=hidden;rotatable=0;points=[[0,0.5],[1,0.5]];portConstraint=eastwest;fontSize=12;whiteSpace=wrap;html=1;" parent="T9H4gMGK_s0aDdUB7x26-30" vertex="1">
          <mxGeometry y="26" width="160" height="30" as="geometry" />
        </mxCell>
        <mxCell id="T9H4gMGK_s0aDdUB7x26-32" value="Item 2" style="text;strokeColor=none;fillColor=none;spacingLeft=4;spacingRight=4;overflow=hidden;rotatable=0;points=[[0,0.5],[1,0.5]];portConstraint=eastwest;fontSize=12;whiteSpace=wrap;html=1;" parent="T9H4gMGK_s0aDdUB7x26-30" vertex="1">
          <mxGeometry y="56" width="160" height="30" as="geometry" />
        </mxCell>
        <mxCell id="T9H4gMGK_s0aDdUB7x26-33" value="Item 3" style="text;strokeColor=none;fillColor=none;spacingLeft=4;spacingRight=4;overflow=hidden;rotatable=0;points=[[0,0.5],[1,0.5]];portConstraint=eastwest;fontSize=12;whiteSpace=wrap;html=1;" parent="T9H4gMGK_s0aDdUB7x26-30" vertex="1">
          <mxGeometry y="86" width="160" height="30" as="geometry" />
        </mxCell>
        <mxCell id="T9H4gMGK_s0aDdUB7x26-34" value="Production électrique" style="swimlane;fontStyle=0;childLayout=stackLayout;horizontal=1;startSize=26;horizontalStack=0;resizeParent=1;resizeParentMax=0;resizeLast=0;collapsible=1;marginBottom=0;align=center;fontSize=14;" parent="T9H4gMGK_s0aDdUB7x26-1" vertex="1">
          <mxGeometry x="663" y="170" width="160" height="116" as="geometry" />
        </mxCell>
        <mxCell id="T9H4gMGK_s0aDdUB7x26-35" value="idProduction" style="text;strokeColor=none;fillColor=none;spacingLeft=4;spacingRight=4;overflow=hidden;rotatable=0;points=[[0,0.5],[1,0.5]];portConstraint=eastwest;fontSize=12;whiteSpace=wrap;html=1;" parent="T9H4gMGK_s0aDdUB7x26-34" vertex="1">
          <mxGeometry y="26" width="160" height="30" as="geometry" />
        </mxCell>
        <mxCell id="T9H4gMGK_s0aDdUB7x26-36" value="Item 2" style="text;strokeColor=none;fillColor=none;spacingLeft=4;spacingRight=4;overflow=hidden;rotatable=0;points=[[0,0.5],[1,0.5]];portConstraint=eastwest;fontSize=12;whiteSpace=wrap;html=1;" parent="T9H4gMGK_s0aDdUB7x26-34" vertex="1">
          <mxGeometry y="56" width="160" height="30" as="geometry" />
        </mxCell>
        <mxCell id="T9H4gMGK_s0aDdUB7x26-37" value="Item 3" style="text;strokeColor=none;fillColor=none;spacingLeft=4;spacingRight=4;overflow=hidden;rotatable=0;points=[[0,0.5],[1,0.5]];portConstraint=eastwest;fontSize=12;whiteSpace=wrap;html=1;" parent="T9H4gMGK_s0aDdUB7x26-34" vertex="1">
          <mxGeometry y="86" width="160" height="30" as="geometry" />
        </mxCell>
        <mxCell id="T9H4gMGK_s0aDdUB7x26-38" value="Recette" style="swimlane;fontStyle=0;childLayout=stackLayout;horizontal=1;startSize=26;horizontalStack=0;resizeParent=1;resizeParentMax=0;resizeLast=0;collapsible=1;marginBottom=0;align=center;fontSize=14;" parent="T9H4gMGK_s0aDdUB7x26-1" vertex="1">
          <mxGeometry x="875" y="170" width="160" height="116" as="geometry" />
        </mxCell>
        <mxCell id="T9H4gMGK_s0aDdUB7x26-39" value="idRecette" style="text;strokeColor=none;fillColor=none;spacingLeft=4;spacingRight=4;overflow=hidden;rotatable=0;points=[[0,0.5],[1,0.5]];portConstraint=eastwest;fontSize=12;whiteSpace=wrap;html=1;" parent="T9H4gMGK_s0aDdUB7x26-38" vertex="1">
          <mxGeometry y="26" width="160" height="30" as="geometry" />
        </mxCell>
        <mxCell id="T9H4gMGK_s0aDdUB7x26-40" value="Item 2" style="text;strokeColor=none;fillColor=none;spacingLeft=4;spacingRight=4;overflow=hidden;rotatable=0;points=[[0,0.5],[1,0.5]];portConstraint=eastwest;fontSize=12;whiteSpace=wrap;html=1;" parent="T9H4gMGK_s0aDdUB7x26-38" vertex="1">
          <mxGeometry y="56" width="160" height="30" as="geometry" />
        </mxCell>
        <mxCell id="T9H4gMGK_s0aDdUB7x26-41" value="Item 3" style="text;strokeColor=none;fillColor=none;spacingLeft=4;spacingRight=4;overflow=hidden;rotatable=0;points=[[0,0.5],[1,0.5]];portConstraint=eastwest;fontSize=12;whiteSpace=wrap;html=1;" parent="T9H4gMGK_s0aDdUB7x26-38" vertex="1">
          <mxGeometry y="86" width="160" height="30" as="geometry" />
        </mxCell>
        <mxCell id="j0MVk8MpoayFazlEa2W3-0" style="edgeStyle=orthogonalEdgeStyle;rounded=0;orthogonalLoop=1;jettySize=auto;html=1;exitX=0.5;exitY=1;exitDx=0;exitDy=0;endArrow=none;startFill=0;" edge="1" parent="T9H4gMGK_s0aDdUB7x26-1" source="nybgzaofSDxsT-tVlt5b-0">
          <mxGeometry relative="1" as="geometry">
            <mxPoint x="400" y="520" as="targetPoint" />
          </mxGeometry>
        </mxCell>
        <mxCell id="nybgzaofSDxsT-tVlt5b-0" value="Bacs" style="swimlane;fontStyle=0;childLayout=stackLayout;horizontal=1;startSize=26;horizontalStack=0;resizeParent=1;resizeParentMax=0;resizeLast=0;collapsible=1;marginBottom=0;align=center;fontSize=14;" parent="T9H4gMGK_s0aDdUB7x26-1" vertex="1">
          <mxGeometry x="17.5" y="360" width="160" height="120" as="geometry" />
        </mxCell>
        <mxCell id="nybgzaofSDxsT-tVlt5b-1" value="&lt;div&gt;idBacs&lt;/div&gt;&lt;div&gt;&lt;br&gt;&lt;/div&gt;&lt;div&gt;nomBac&lt;/div&gt;&lt;div&gt;capacite&lt;/div&gt;&lt;div&gt;localisation&lt;/div&gt;&lt;div&gt;energieconsommee&lt;/div&gt;&lt;div&gt;&lt;br&gt;&lt;/div&gt;" style="text;strokeColor=none;fillColor=none;spacingLeft=4;spacingRight=4;overflow=hidden;rotatable=0;points=[[0,0.5],[1,0.5]];portConstraint=eastwest;fontSize=12;whiteSpace=wrap;html=1;" parent="nybgzaofSDxsT-tVlt5b-0" vertex="1">
          <mxGeometry y="26" width="160" height="94" as="geometry" />
        </mxCell>
        <mxCell id="nybgzaofSDxsT-tVlt5b-4" value="Plantes" style="swimlane;fontStyle=0;childLayout=stackLayout;horizontal=1;startSize=26;horizontalStack=0;resizeParent=1;resizeParentMax=0;resizeLast=0;collapsible=1;marginBottom=0;align=center;fontSize=14;" parent="T9H4gMGK_s0aDdUB7x26-1" vertex="1">
          <mxGeometry x="415" y="360" width="160" height="100" as="geometry">
            <mxRectangle x="380" y="360" width="90" height="30" as="alternateBounds" />
          </mxGeometry>
        </mxCell>
        <mxCell id="nybgzaofSDxsT-tVlt5b-5" value="&lt;div&gt;idPlantes&lt;/div&gt;&lt;div&gt;&lt;br&gt;&lt;/div&gt;&lt;div&gt;nomPlante&lt;/div&gt;&lt;div&gt;datePlantation&lt;br&gt;&lt;/div&gt;" style="text;strokeColor=none;fillColor=none;spacingLeft=4;spacingRight=4;overflow=hidden;rotatable=0;points=[[0,0.5],[1,0.5]];portConstraint=eastwest;fontSize=12;whiteSpace=wrap;html=1;" parent="nybgzaofSDxsT-tVlt5b-4" vertex="1">
          <mxGeometry y="26" width="160" height="74" as="geometry" />
        </mxCell>
        <mxCell id="nybgzaofSDxsT-tVlt5b-12" value="" style="endArrow=none;html=1;rounded=0;entryX=0;entryY=0.5;entryDx=0;entryDy=0;" parent="T9H4gMGK_s0aDdUB7x26-1" edge="1">
          <mxGeometry relative="1" as="geometry">
            <mxPoint x="177.5" y="430" as="sourcePoint" />
            <mxPoint x="415" y="431" as="targetPoint" />
          </mxGeometry>
        </mxCell>
        <mxCell id="nybgzaofSDxsT-tVlt5b-9" value="contenir" style="ellipse;whiteSpace=wrap;html=1;align=center;" parent="T9H4gMGK_s0aDdUB7x26-1" vertex="1">
          <mxGeometry x="222.5" y="410" width="100" height="40" as="geometry" />
        </mxCell>
        <mxCell id="gFLPSM0X9cLNO_FBiv-f-0" value="1,1" style="text;html=1;align=center;verticalAlign=middle;resizable=0;points=[];autosize=1;strokeColor=none;fillColor=none;" parent="T9H4gMGK_s0aDdUB7x26-1" vertex="1">
          <mxGeometry x="182.5" y="399" width="40" height="30" as="geometry" />
        </mxCell>
        <mxCell id="gFLPSM0X9cLNO_FBiv-f-2" value="0,N" style="text;html=1;align=center;verticalAlign=middle;resizable=0;points=[];autosize=1;strokeColor=none;fillColor=none;" parent="T9H4gMGK_s0aDdUB7x26-1" vertex="1">
          <mxGeometry x="332.5" y="399" width="40" height="30" as="geometry" />
        </mxCell>
        <mxCell id="gFLPSM0X9cLNO_FBiv-f-3" value="" style="endArrow=none;html=1;rounded=0;" parent="T9H4gMGK_s0aDdUB7x26-1" edge="1">
          <mxGeometry width="50" height="50" relative="1" as="geometry">
            <mxPoint x="10" y="320" as="sourcePoint" />
            <mxPoint x="1160" y="320" as="targetPoint" />
          </mxGeometry>
        </mxCell>
        <mxCell id="gFLPSM0X9cLNO_FBiv-f-8" value="Actionneur" style="swimlane;fontStyle=0;childLayout=stackLayout;horizontal=1;startSize=26;horizontalStack=0;resizeParent=1;resizeParentMax=0;resizeLast=0;collapsible=1;marginBottom=0;align=center;fontSize=14;" parent="T9H4gMGK_s0aDdUB7x26-1" vertex="1">
          <mxGeometry x="17.5" y="525" width="160" height="110" as="geometry" />
        </mxCell>
        <mxCell id="gFLPSM0X9cLNO_FBiv-f-9" value="&lt;div&gt;idActionneur&lt;/div&gt;&lt;div&gt;&lt;br&gt;&lt;/div&gt;&lt;div&gt;typeActionneur&lt;/div&gt;&lt;div&gt;dateInstallation&lt;/div&gt;&lt;div&gt;datemaintenance&lt;br&gt;&lt;/div&gt;" style="text;strokeColor=none;fillColor=none;spacingLeft=4;spacingRight=4;overflow=hidden;rotatable=0;points=[[0,0.5],[1,0.5]];portConstraint=eastwest;fontSize=12;whiteSpace=wrap;html=1;" parent="gFLPSM0X9cLNO_FBiv-f-8" vertex="1">
          <mxGeometry y="26" width="160" height="84" as="geometry" />
        </mxCell>
        <mxCell id="gFLPSM0X9cLNO_FBiv-f-16" value="" style="endArrow=none;html=1;rounded=0;edgeStyle=orthogonalEdgeStyle;" parent="T9H4gMGK_s0aDdUB7x26-1" edge="1">
          <mxGeometry relative="1" as="geometry">
            <mxPoint x="177.5" y="580" as="sourcePoint" />
            <mxPoint x="400" y="520" as="targetPoint" />
          </mxGeometry>
        </mxCell>
        <mxCell id="gFLPSM0X9cLNO_FBiv-f-17" value="relier" style="ellipse;whiteSpace=wrap;html=1;align=center;" parent="T9H4gMGK_s0aDdUB7x26-1" vertex="1">
          <mxGeometry x="222.5" y="560" width="100" height="40" as="geometry" />
        </mxCell>
        <mxCell id="gFLPSM0X9cLNO_FBiv-f-18" value="1,1" style="text;html=1;align=center;verticalAlign=middle;resizable=0;points=[];autosize=1;strokeColor=none;fillColor=none;" parent="T9H4gMGK_s0aDdUB7x26-1" vertex="1">
          <mxGeometry x="180" y="549" width="40" height="30" as="geometry" />
        </mxCell>
        <mxCell id="gFLPSM0X9cLNO_FBiv-f-19" value="0,N" style="text;html=1;align=center;verticalAlign=middle;resizable=0;points=[];autosize=1;strokeColor=none;fillColor=none;" parent="T9H4gMGK_s0aDdUB7x26-1" vertex="1">
          <mxGeometry x="332.5" y="549" width="40" height="30" as="geometry" />
        </mxCell>
        <mxCell id="gFLPSM0X9cLNO_FBiv-f-28" value="Capteur" style="swimlane;fontStyle=0;childLayout=stackLayout;horizontal=1;startSize=26;horizontalStack=0;resizeParent=1;resizeParentMax=0;resizeLast=0;collapsible=1;marginBottom=0;align=center;fontSize=14;" parent="T9H4gMGK_s0aDdUB7x26-1" vertex="1">
          <mxGeometry x="17.5" y="670" width="160" height="120" as="geometry" />
        </mxCell>
        <mxCell id="gFLPSM0X9cLNO_FBiv-f-29" value="&lt;div&gt;idCapteur&lt;/div&gt;&lt;div&gt;&lt;br&gt;&lt;/div&gt;&lt;div&gt;typeCapteur&lt;/div&gt;&lt;div&gt;localisation&lt;/div&gt;&lt;div&gt;dateInstallation&lt;/div&gt;&lt;div&gt;datemaintenance&lt;br&gt;&lt;/div&gt;" style="text;strokeColor=none;fillColor=none;spacingLeft=4;spacingRight=4;overflow=hidden;rotatable=0;points=[[0,0.5],[1,0.5]];portConstraint=eastwest;fontSize=12;whiteSpace=wrap;html=1;" parent="gFLPSM0X9cLNO_FBiv-f-28" vertex="1">
          <mxGeometry y="26" width="160" height="94" as="geometry" />
        </mxCell>
        <mxCell id="gFLPSM0X9cLNO_FBiv-f-36" value="" style="endArrow=none;html=1;rounded=0;" parent="T9H4gMGK_s0aDdUB7x26-1" edge="1">
          <mxGeometry relative="1" as="geometry">
            <mxPoint x="177.5" y="730" as="sourcePoint" />
            <mxPoint x="400" y="730" as="targetPoint" />
          </mxGeometry>
        </mxCell>
        <mxCell id="gFLPSM0X9cLNO_FBiv-f-37" value="surveiller" style="ellipse;whiteSpace=wrap;html=1;align=center;" parent="T9H4gMGK_s0aDdUB7x26-1" vertex="1">
          <mxGeometry x="222.5" y="710" width="100" height="40" as="geometry" />
        </mxCell>
        <mxCell id="gFLPSM0X9cLNO_FBiv-f-38" value="1,1" style="text;html=1;align=center;verticalAlign=middle;resizable=0;points=[];autosize=1;strokeColor=none;fillColor=none;" parent="T9H4gMGK_s0aDdUB7x26-1" vertex="1">
          <mxGeometry x="180" y="699" width="40" height="30" as="geometry" />
        </mxCell>
        <mxCell id="gFLPSM0X9cLNO_FBiv-f-39" value="0,N" style="text;html=1;align=center;verticalAlign=middle;resizable=0;points=[];autosize=1;strokeColor=none;fillColor=none;" parent="T9H4gMGK_s0aDdUB7x26-1" vertex="1">
          <mxGeometry x="332.5" y="699" width="40" height="30" as="geometry" />
        </mxCell>
        <mxCell id="gFLPSM0X9cLNO_FBiv-f-40" value="Alerte" style="swimlane;fontStyle=0;childLayout=stackLayout;horizontal=1;startSize=26;horizontalStack=0;resizeParent=1;resizeParentMax=0;resizeLast=0;collapsible=1;marginBottom=0;align=center;fontSize=14;" parent="T9H4gMGK_s0aDdUB7x26-1" vertex="1">
          <mxGeometry x="17.5" y="819" width="160" height="110" as="geometry" />
        </mxCell>
        <mxCell id="gFLPSM0X9cLNO_FBiv-f-41" value="&lt;div&gt;idAlerte&lt;/div&gt;&lt;div&gt;&lt;br&gt;&lt;/div&gt;&lt;div&gt;typeAlerte&lt;/div&gt;&lt;div&gt;dateHeure&lt;/div&gt;&lt;div&gt;message&lt;br&gt;&lt;/div&gt;" style="text;strokeColor=none;fillColor=none;spacingLeft=4;spacingRight=4;overflow=hidden;rotatable=0;points=[[0,0.5],[1,0.5]];portConstraint=eastwest;fontSize=12;whiteSpace=wrap;html=1;" parent="gFLPSM0X9cLNO_FBiv-f-40" vertex="1">
          <mxGeometry y="26" width="160" height="84" as="geometry" />
        </mxCell>
        <mxCell id="gFLPSM0X9cLNO_FBiv-f-48" value="" style="endArrow=none;html=1;rounded=0;" parent="T9H4gMGK_s0aDdUB7x26-1" edge="1">
          <mxGeometry relative="1" as="geometry">
            <mxPoint x="177.5" y="880" as="sourcePoint" />
            <mxPoint x="400" y="880" as="targetPoint" />
          </mxGeometry>
        </mxCell>
        <mxCell id="gFLPSM0X9cLNO_FBiv-f-49" value="alerter" style="ellipse;whiteSpace=wrap;html=1;align=center;" parent="T9H4gMGK_s0aDdUB7x26-1" vertex="1">
          <mxGeometry x="222.5" y="860" width="100" height="40" as="geometry" />
        </mxCell>
        <mxCell id="gFLPSM0X9cLNO_FBiv-f-50" value="1,1" style="text;html=1;align=center;verticalAlign=middle;resizable=0;points=[];autosize=1;strokeColor=none;fillColor=none;" parent="T9H4gMGK_s0aDdUB7x26-1" vertex="1">
          <mxGeometry x="180" y="849" width="40" height="30" as="geometry" />
        </mxCell>
        <mxCell id="gFLPSM0X9cLNO_FBiv-f-51" value="0,N" style="text;html=1;align=center;verticalAlign=middle;resizable=0;points=[];autosize=1;strokeColor=none;fillColor=none;" parent="T9H4gMGK_s0aDdUB7x26-1" vertex="1">
          <mxGeometry x="332.5" y="849" width="40" height="30" as="geometry" />
        </mxCell>
        <mxCell id="gFLPSM0X9cLNO_FBiv-f-129" value="0,N" style="text;html=1;align=center;verticalAlign=middle;resizable=0;points=[];autosize=1;strokeColor=none;fillColor=none;" parent="T9H4gMGK_s0aDdUB7x26-1" vertex="1">
          <mxGeometry x="922" y="640" width="40" height="30" as="geometry" />
        </mxCell>
        <mxCell id="gFLPSM0X9cLNO_FBiv-f-131" value="&amp;nbsp;" style="text;strokeColor=none;fillColor=none;spacingLeft=4;spacingRight=4;overflow=hidden;rotatable=0;points=[[0,0.5],[1,0.5]];portConstraint=eastwest;fontSize=12;whiteSpace=wrap;html=1;" parent="T9H4gMGK_s0aDdUB7x26-1" vertex="1">
          <mxGeometry x="938.5" y="699" width="160" height="30" as="geometry" />
        </mxCell>
        <mxCell id="gFLPSM0X9cLNO_FBiv-f-145" value="Groupe" style="swimlane;fontStyle=0;childLayout=stackLayout;horizontal=1;startSize=26;horizontalStack=0;resizeParent=1;resizeParentMax=0;resizeLast=0;collapsible=1;marginBottom=0;align=center;fontSize=14;" parent="T9H4gMGK_s0aDdUB7x26-1" vertex="1">
          <mxGeometry x="967" y="619" width="160" height="116" as="geometry">
            <mxRectangle x="380" y="360" width="90" height="30" as="alternateBounds" />
          </mxGeometry>
        </mxCell>
        <mxCell id="gFLPSM0X9cLNO_FBiv-f-146" value="idGroupe" style="text;strokeColor=none;fillColor=none;spacingLeft=4;spacingRight=4;overflow=hidden;rotatable=0;points=[[0,0.5],[1,0.5]];portConstraint=eastwest;fontSize=12;whiteSpace=wrap;html=1;" parent="gFLPSM0X9cLNO_FBiv-f-145" vertex="1">
          <mxGeometry y="26" width="160" height="30" as="geometry" />
        </mxCell>
        <mxCell id="gFLPSM0X9cLNO_FBiv-f-147" value="nom" style="text;strokeColor=none;fillColor=none;spacingLeft=4;spacingRight=4;overflow=hidden;rotatable=0;points=[[0,0.5],[1,0.5]];portConstraint=eastwest;fontSize=12;whiteSpace=wrap;html=1;" parent="gFLPSM0X9cLNO_FBiv-f-145" vertex="1">
          <mxGeometry y="56" width="160" height="30" as="geometry" />
        </mxCell>
        <mxCell id="gFLPSM0X9cLNO_FBiv-f-148" value="&amp;nbsp;" style="text;strokeColor=none;fillColor=none;spacingLeft=4;spacingRight=4;overflow=hidden;rotatable=0;points=[[0,0.5],[1,0.5]];portConstraint=eastwest;fontSize=12;whiteSpace=wrap;html=1;" parent="gFLPSM0X9cLNO_FBiv-f-145" vertex="1">
          <mxGeometry y="86" width="160" height="30" as="geometry" />
        </mxCell>
        <mxCell id="gFLPSM0X9cLNO_FBiv-f-149" value="" style="endArrow=none;html=1;rounded=0;entryX=0;entryY=0.5;entryDx=0;entryDy=0;exitX=1;exitY=0.5;exitDx=0;exitDy=0;" parent="T9H4gMGK_s0aDdUB7x26-1" target="gFLPSM0X9cLNO_FBiv-f-147" edge="1" source="gFLPSM0X9cLNO_FBiv-f-178">
          <mxGeometry relative="1" as="geometry">
            <mxPoint x="660" y="1100" as="sourcePoint" />
            <mxPoint x="692.5" y="1180" as="targetPoint" />
          </mxGeometry>
        </mxCell>
        <mxCell id="gFLPSM0X9cLNO_FBiv-f-150" value="appartenir" style="ellipse;whiteSpace=wrap;html=1;align=center;rotation=-45;" parent="T9H4gMGK_s0aDdUB7x26-1" vertex="1">
          <mxGeometry x="760" y="854" width="100" height="40" as="geometry" />
        </mxCell>
        <mxCell id="gFLPSM0X9cLNO_FBiv-f-151" value="1,1" style="text;html=1;align=center;verticalAlign=middle;resizable=0;points=[];autosize=1;strokeColor=none;fillColor=none;" parent="T9H4gMGK_s0aDdUB7x26-1" vertex="1">
          <mxGeometry x="650" y="1070" width="40" height="30" as="geometry" />
        </mxCell>
        <mxCell id="gFLPSM0X9cLNO_FBiv-f-152" value="0,N" style="text;html=1;align=center;verticalAlign=middle;resizable=0;points=[];autosize=1;strokeColor=none;fillColor=none;" parent="T9H4gMGK_s0aDdUB7x26-1" vertex="1">
          <mxGeometry x="910" y="699" width="40" height="30" as="geometry" />
        </mxCell>
        <mxCell id="gFLPSM0X9cLNO_FBiv-f-153" value="&amp;nbsp;" style="text;strokeColor=none;fillColor=none;spacingLeft=4;spacingRight=4;overflow=hidden;rotatable=0;points=[[0,0.5],[1,0.5]];portConstraint=eastwest;fontSize=12;whiteSpace=wrap;html=1;" parent="T9H4gMGK_s0aDdUB7x26-1" vertex="1">
          <mxGeometry x="967" y="813" width="160" height="30" as="geometry" />
        </mxCell>
        <mxCell id="gFLPSM0X9cLNO_FBiv-f-154" value="" style="endArrow=none;html=1;rounded=0;entryX=-0.001;entryY=0.142;entryDx=0;entryDy=0;exitX=1;exitY=0.5;exitDx=0;exitDy=0;entryPerimeter=0;" parent="T9H4gMGK_s0aDdUB7x26-1" source="gFLPSM0X9cLNO_FBiv-f-178" target="gFLPSM0X9cLNO_FBiv-f-161" edge="1">
          <mxGeometry relative="1" as="geometry">
            <mxPoint x="907.3553390593274" y="944.6446609406728" as="sourcePoint" />
            <mxPoint x="727.5" y="1310" as="targetPoint" />
          </mxGeometry>
        </mxCell>
        <mxCell id="gFLPSM0X9cLNO_FBiv-f-155" value="1,1" style="text;html=1;align=center;verticalAlign=middle;resizable=0;points=[];autosize=1;strokeColor=none;fillColor=none;" parent="T9H4gMGK_s0aDdUB7x26-1" vertex="1">
          <mxGeometry x="650" y="995" width="40" height="30" as="geometry" />
        </mxCell>
        <mxCell id="gFLPSM0X9cLNO_FBiv-f-156" value="0,N" style="text;html=1;align=center;verticalAlign=middle;resizable=0;points=[];autosize=1;strokeColor=none;fillColor=none;" parent="T9H4gMGK_s0aDdUB7x26-1" vertex="1">
          <mxGeometry x="910" y="827" width="40" height="30" as="geometry" />
        </mxCell>
        <mxCell id="gFLPSM0X9cLNO_FBiv-f-159" value="Periode" style="swimlane;fontStyle=0;childLayout=stackLayout;horizontal=1;startSize=26;horizontalStack=0;resizeParent=1;resizeParentMax=0;resizeLast=0;collapsible=1;marginBottom=0;align=center;fontSize=14;" parent="T9H4gMGK_s0aDdUB7x26-1" vertex="1">
          <mxGeometry x="967" y="770" width="160" height="116" as="geometry">
            <mxRectangle x="380" y="360" width="90" height="30" as="alternateBounds" />
          </mxGeometry>
        </mxCell>
        <mxCell id="gFLPSM0X9cLNO_FBiv-f-160" value="idPeriode" style="text;strokeColor=none;fillColor=none;spacingLeft=4;spacingRight=4;overflow=hidden;rotatable=0;points=[[0,0.5],[1,0.5]];portConstraint=eastwest;fontSize=12;whiteSpace=wrap;html=1;" parent="gFLPSM0X9cLNO_FBiv-f-159" vertex="1">
          <mxGeometry y="26" width="160" height="30" as="geometry" />
        </mxCell>
        <mxCell id="gFLPSM0X9cLNO_FBiv-f-161" value="nom" style="text;strokeColor=none;fillColor=none;spacingLeft=4;spacingRight=4;overflow=hidden;rotatable=0;points=[[0,0.5],[1,0.5]];portConstraint=eastwest;fontSize=12;whiteSpace=wrap;html=1;" parent="gFLPSM0X9cLNO_FBiv-f-159" vertex="1">
          <mxGeometry y="56" width="160" height="30" as="geometry" />
        </mxCell>
        <mxCell id="gFLPSM0X9cLNO_FBiv-f-162" value="&amp;nbsp;" style="text;strokeColor=none;fillColor=none;spacingLeft=4;spacingRight=4;overflow=hidden;rotatable=0;points=[[0,0.5],[1,0.5]];portConstraint=eastwest;fontSize=12;whiteSpace=wrap;html=1;" parent="gFLPSM0X9cLNO_FBiv-f-159" vertex="1">
          <mxGeometry y="86" width="160" height="30" as="geometry" />
        </mxCell>
        <mxCell id="gFLPSM0X9cLNO_FBiv-f-169" value="Irrigation" style="swimlane;fontStyle=0;childLayout=stackLayout;horizontal=1;startSize=26;horizontalStack=0;resizeParent=1;resizeParentMax=0;resizeLast=0;collapsible=1;marginBottom=0;align=center;fontSize=14;" parent="T9H4gMGK_s0aDdUB7x26-1" vertex="1">
          <mxGeometry x="17.5" y="1000" width="160" height="80" as="geometry" />
        </mxCell>
        <mxCell id="gFLPSM0X9cLNO_FBiv-f-170" value="&lt;div&gt;idIrrigtion&lt;/div&gt;&lt;div&gt;&lt;br&gt;&lt;/div&gt;&lt;div&gt;dateHeure&lt;/div&gt;&lt;div&gt;&lt;br&gt;&lt;/div&gt;" style="text;strokeColor=none;fillColor=none;spacingLeft=4;spacingRight=4;overflow=hidden;rotatable=0;points=[[0,0.5],[1,0.5]];portConstraint=eastwest;fontSize=12;whiteSpace=wrap;html=1;" parent="gFLPSM0X9cLNO_FBiv-f-169" vertex="1">
          <mxGeometry y="26" width="160" height="54" as="geometry" />
        </mxCell>
        <mxCell id="gFLPSM0X9cLNO_FBiv-f-173" value="" style="endArrow=none;html=1;rounded=0;" parent="T9H4gMGK_s0aDdUB7x26-1" edge="1">
          <mxGeometry relative="1" as="geometry">
            <mxPoint x="177.5" y="1050" as="sourcePoint" />
            <mxPoint x="400" y="960" as="targetPoint" />
          </mxGeometry>
        </mxCell>
        <mxCell id="gFLPSM0X9cLNO_FBiv-f-174" value="irriguer" style="ellipse;whiteSpace=wrap;html=1;align=center;rotation=-20;" parent="T9H4gMGK_s0aDdUB7x26-1" vertex="1">
          <mxGeometry x="237" y="990" width="100" height="40" as="geometry" />
        </mxCell>
        <mxCell id="gFLPSM0X9cLNO_FBiv-f-175" value="1,1" style="text;html=1;align=center;verticalAlign=middle;resizable=0;points=[];autosize=1;strokeColor=none;fillColor=none;" parent="T9H4gMGK_s0aDdUB7x26-1" vertex="1">
          <mxGeometry x="182.5" y="1010" width="40" height="30" as="geometry" />
        </mxCell>
        <mxCell id="gFLPSM0X9cLNO_FBiv-f-176" value="1,N" style="text;html=1;align=center;verticalAlign=middle;resizable=0;points=[];autosize=1;strokeColor=none;fillColor=none;" parent="T9H4gMGK_s0aDdUB7x26-1" vertex="1">
          <mxGeometry x="350" y="940" width="40" height="30" as="geometry" />
        </mxCell>
        <mxCell id="gFLPSM0X9cLNO_FBiv-f-177" value="Recette" style="swimlane;fontStyle=0;childLayout=stackLayout;horizontal=1;startSize=26;horizontalStack=0;resizeParent=1;resizeParentMax=0;resizeLast=0;collapsible=1;marginBottom=0;align=center;fontSize=14;" parent="T9H4gMGK_s0aDdUB7x26-1" vertex="1">
          <mxGeometry x="490" y="915" width="160" height="250" as="geometry">
            <mxRectangle x="380" y="360" width="90" height="30" as="alternateBounds" />
          </mxGeometry>
        </mxCell>
        <mxCell id="gFLPSM0X9cLNO_FBiv-f-178" value="&lt;div&gt;idRecette&lt;br&gt;&lt;/div&gt;&lt;div&gt;&lt;br&gt;&lt;/div&gt;&lt;div&gt;eauArrosage&lt;/div&gt;&lt;div&gt;&lt;div&gt;arrosage_jour&lt;/div&gt;&lt;div&gt;quotidien&lt;/div&gt;&lt;div&gt;eauTotalJour&lt;/div&gt;&lt;div&gt;&lt;span style=&quot;font-weight: normal;&quot;&gt;rationNPK&lt;/span&gt;&lt;br&gt;azote&lt;br&gt;tempsActivationAzote&lt;br&gt;phosphore&lt;br&gt;tempsActivationPhosphore&lt;br&gt;potassium&lt;/div&gt;&lt;div&gt;tempsActivationPotassium&lt;br&gt;quantiteNutriment&lt;br&gt;seuilHumidite&lt;br&gt;&lt;br&gt;&lt;br&gt;&lt;table data-uniqueid=&quot;1690266209&quot; class=&quot;table table-striped table-hover table-sm table_results data ajax w-auto&quot;&gt;&lt;thead&gt;&lt;tr&gt;&lt;th data-column=&quot;rationNPK&quot; class=&quot;draggable position-sticky text-end&quot;&gt;&lt;span style=&quot;font-weight: normal;&quot;&gt;&lt;br&gt;        &lt;br&gt;  &lt;/span&gt;&lt;/th&gt;  &lt;th data-column=&quot;azote&quot; class=&quot;draggable position-sticky text-end&quot;&gt;&lt;br&gt;&lt;br&gt;        &lt;br&gt;  &lt;/th&gt;  &lt;th data-column=&quot;tempsActivationAzote&quot; class=&quot;draggable position-sticky text-end&quot;&gt;&lt;br&gt;&lt;br&gt;        &lt;br&gt;  &lt;/th&gt;  &lt;th data-column=&quot;phosphore&quot; class=&quot;draggable position-sticky text-end&quot;&gt;&lt;br&gt;&lt;br&gt;        &lt;br&gt;  &lt;/th&gt;  &lt;th data-column=&quot;tempsActivationPhosphore&quot; class=&quot;draggable position-sticky text-end&quot;&gt;&lt;br&gt;&lt;br&gt;        &lt;br&gt;  &lt;/th&gt;  &lt;th data-column=&quot;potassium&quot; class=&quot;draggable position-sticky text-end&quot;&gt;&lt;br&gt;&lt;br&gt;        &lt;br&gt;  &lt;/th&gt;  &lt;th data-column=&quot;tempsActivationPotassium&quot; class=&quot;draggable position-sticky text-end&quot;&gt;&lt;br&gt;&lt;br&gt;        &lt;br&gt;  &lt;/th&gt;  &lt;th data-column=&quot;quantiteNutriment&quot; class=&quot;draggable position-sticky text-end&quot;&gt;&lt;br&gt;&lt;br&gt;        &lt;br&gt;  &lt;/th&gt;  &lt;th data-column=&quot;seuilHumidite&quot; class=&quot;draggable position-sticky text-end&quot;&gt;&lt;br&gt;&lt;br&gt;        &lt;br&gt;  &lt;/th&gt;      &lt;td colspan=&quot;4&quot; class=&quot;d-print-none&quot;&gt;&lt;br&gt;&lt;/td&gt;&lt;/tr&gt;&lt;/thead&gt;&lt;/table&gt;&lt;/div&gt;&lt;/div&gt;&lt;div&gt;&lt;br&gt;&lt;/div&gt;" style="text;strokeColor=none;fillColor=none;spacingLeft=4;spacingRight=4;overflow=hidden;rotatable=0;points=[[0,0.5],[1,0.5]];portConstraint=eastwest;fontSize=12;whiteSpace=wrap;html=1;" parent="gFLPSM0X9cLNO_FBiv-f-177" vertex="1">
          <mxGeometry y="26" width="160" height="224" as="geometry" />
        </mxCell>
        <mxCell id="gFLPSM0X9cLNO_FBiv-f-182" value="1,1" style="text;html=1;align=center;verticalAlign=middle;resizable=0;points=[];autosize=1;strokeColor=none;fillColor=none;" parent="T9H4gMGK_s0aDdUB7x26-1" vertex="1">
          <mxGeometry x="182.5" y="1050" width="40" height="30" as="geometry" />
        </mxCell>
        <mxCell id="gFLPSM0X9cLNO_FBiv-f-183" value="0,N" style="text;html=1;align=center;verticalAlign=middle;resizable=0;points=[];autosize=1;strokeColor=none;fillColor=none;" parent="T9H4gMGK_s0aDdUB7x26-1" vertex="1">
          <mxGeometry x="440" y="1050" width="40" height="30" as="geometry" />
        </mxCell>
        <mxCell id="gFLPSM0X9cLNO_FBiv-f-184" value="" style="endArrow=none;html=1;rounded=0;entryX=0;entryY=0.5;entryDx=0;entryDy=0;exitX=1;exitY=0.5;exitDx=0;exitDy=0;" parent="T9H4gMGK_s0aDdUB7x26-1" target="gFLPSM0X9cLNO_FBiv-f-178" edge="1">
          <mxGeometry relative="1" as="geometry">
            <mxPoint x="177.5" y="1051" as="sourcePoint" />
            <mxPoint x="256.6987298107781" y="1105" as="targetPoint" />
          </mxGeometry>
        </mxCell>
        <mxCell id="gFLPSM0X9cLNO_FBiv-f-206" style="rounded=0;orthogonalLoop=1;jettySize=auto;html=1;entryX=0;entryY=0.5;entryDx=0;entryDy=0;endArrow=none;startFill=0;exitX=1;exitY=0.5;exitDx=0;exitDy=0;" parent="T9H4gMGK_s0aDdUB7x26-1" source="gFLPSM0X9cLNO_FBiv-f-207" target="gFLPSM0X9cLNO_FBiv-f-147" edge="1">
          <mxGeometry relative="1" as="geometry">
            <mxPoint x="820" y="960" as="targetPoint" />
            <mxPoint x="575" y="431" as="sourcePoint" />
            <Array as="points" />
          </mxGeometry>
        </mxCell>
        <mxCell id="gFLPSM0X9cLNO_FBiv-f-191" value="1,1" style="text;html=1;align=center;verticalAlign=middle;resizable=0;points=[];autosize=1;strokeColor=none;fillColor=none;" parent="T9H4gMGK_s0aDdUB7x26-1" vertex="1">
          <mxGeometry x="590" y="410" width="40" height="30" as="geometry" />
        </mxCell>
        <mxCell id="j0MVk8MpoayFazlEa2W3-1" value="" style="endArrow=none;html=1;rounded=0;" edge="1" parent="T9H4gMGK_s0aDdUB7x26-1">
          <mxGeometry width="50" height="50" relative="1" as="geometry">
            <mxPoint x="400" y="960" as="sourcePoint" />
            <mxPoint x="400" y="579" as="targetPoint" />
          </mxGeometry>
        </mxCell>
        <mxCell id="j0MVk8MpoayFazlEa2W3-2" value="" style="rounded=0;orthogonalLoop=1;jettySize=auto;html=1;entryX=0;entryY=0.5;entryDx=0;entryDy=0;endArrow=none;startFill=0;exitX=1;exitY=0.5;exitDx=0;exitDy=0;" edge="1" parent="T9H4gMGK_s0aDdUB7x26-1" target="gFLPSM0X9cLNO_FBiv-f-207">
          <mxGeometry relative="1" as="geometry">
            <mxPoint x="967" y="690" as="targetPoint" />
            <mxPoint x="575" y="431" as="sourcePoint" />
            <Array as="points" />
          </mxGeometry>
        </mxCell>
        <mxCell id="gFLPSM0X9cLNO_FBiv-f-207" value="répertorier" style="ellipse;whiteSpace=wrap;html=1;align=center;rotation=35;" parent="T9H4gMGK_s0aDdUB7x26-1" vertex="1">
          <mxGeometry x="670" y="500" width="100" height="40" as="geometry" />
        </mxCell>
        <mxCell id="j0MVk8MpoayFazlEa2W3-3" value="transporter" style="ellipse;whiteSpace=wrap;html=1;align=center;rotation=0;" vertex="1" parent="T9H4gMGK_s0aDdUB7x26-1">
          <mxGeometry x="302.5" y="1030" width="100" height="40" as="geometry" />
        </mxCell>
        <mxCell id="j0MVk8MpoayFazlEa2W3-4" value="correspondre" style="ellipse;whiteSpace=wrap;html=1;align=center;rotation=-30;" vertex="1" parent="T9H4gMGK_s0aDdUB7x26-1">
          <mxGeometry x="790" y="900" width="100" height="40" as="geometry" />
        </mxCell>
      </root>
    </mxGraphModel>
  </diagram>
</mxfile>
